<?xml version="1.0" standalone="no"?>
<!DOCTYPE svg PUBLIC "-//W3C//DTD SVG 20010904//EN"
 "http://www.w3.org/TR/2001/REC-SVG-20010904/DTD/svg10.dtd">
<svg version="1.0" xmlns="http://www.w3.org/2000/svg"
 width="860.000000pt" height="674.000000pt" viewBox="0 0 860.000000 674.000000"
 preserveAspectRatio="xMidYMid meet">

<g transform="translate(0.000000,674.000000) scale(0.100000,-0.100000)"
fill="#4072c7" stroke="none">
<path d="M3934 6280 c13 -105 74 -208 199 -337 74 -76 78 -82 56 -87 -164 -36
-389 -45 -548 -22 -158 24 -245 52 -435 144 -5 3 4 -19 19 -47 45 -82 126
-172 213 -236 54 -40 77 -62 68 -67 -7 -4 -48 -19 -91 -33 -264 -86 -593 -88
-858 -5 -50 16 -93 27 -96 25 -2 -3 32 -40 75 -83 70 -69 168 -141 266 -195
l33 -19 -60 -24 c-117 -48 -352 -122 -455 -144 -192 -40 -352 -28 -443 34 -52
36 -46 14 14 -49 57 -61 172 -125 304 -171 44 -15 83 -30 88 -34 8 -7 -195
-73 -353 -114 -281 -74 -517 -77 -635 -7 -53 31 -42 8 33 -68 69 -71 165 -138
265 -187 31 -15 57 -31 57 -35 0 -4 -36 -21 -79 -38 -290 -112 -677 -163 -796
-106 -22 10 -44 21 -49 23 -6 3 8 -16 29 -42 54 -66 155 -138 262 -188 51 -24
91 -47 90 -52 -5 -17 -210 -135 -287 -166 -176 -70 -320 -79 -434 -27 -32 15
-61 25 -63 23 -7 -6 175 -164 252 -218 95 -67 227 -133 327 -162 91 -27 97
-36 46 -76 -17 -14 -45 -38 -62 -55 l-31 -30 25 -3 c14 -2 56 9 93 23 66 24
112 32 105 18 -33 -64 -40 -98 -47 -213 -7 -108 -12 -134 -35 -180 -15 -30
-37 -65 -48 -77 l-21 -23 47 0 c28 0 71 10 109 27 56 24 78 27 227 33 91 4
178 12 194 19 16 6 30 10 32 8 2 -2 -6 -28 -18 -58 -17 -45 -22 -85 -28 -239
-7 -185 -14 -220 -55 -300 -9 -17 -14 -34 -12 -36 2 -3 26 4 53 14 69 28 138
40 309 57 83 8 165 17 184 21 l34 7 -6 -139 c-8 -157 -32 -280 -77 -386 -16
-40 -30 -76 -30 -80 0 -4 15 1 33 12 61 35 137 49 307 54 156 5 208 13 328 51
l23 8 -18 -39 c-15 -33 -18 -69 -18 -249 -1 -194 -3 -214 -23 -258 -14 -30
-17 -47 -10 -43 80 33 127 39 278 33 141 -4 229 1 270 17 13 5 15 -17 16 -166
1 -253 38 -421 136 -609 48 -93 157 -250 178 -257 6 -2 10 22 10 60 0 109 20
300 40 385 27 116 80 215 152 285 32 32 63 58 68 58 5 0 28 -33 51 -72 23 -40
65 -109 93 -153 l51 -79 7 39 c4 22 7 69 7 105 2 141 45 329 103 445 48 94
159 241 171 224 1 -2 16 -33 32 -69 17 -35 51 -96 76 -135 54 -82 133 -171
125 -140 -40 154 -47 374 -16 505 27 111 95 246 175 345 65 80 85 98 85 73 0
-16 140 -301 167 -341 l20 -27 -1 167 c0 272 51 426 197 597 l33 39 38 -79
c20 -43 56 -104 79 -134 l41 -55 12 105 c46 401 347 782 679 855 49 11 94 15
123 11 74 -10 165 -59 232 -123 l60 -59 0 -75 c0 -68 -3 -79 -35 -129 -19 -30
-35 -63 -35 -73 0 -16 4 -15 34 8 51 39 127 65 211 72 88 7 93 2 70 -72 -20
-66 -18 -167 4 -235 18 -54 18 -54 25 -25 25 104 60 140 202 211 164 82 241
177 289 359 19 75 25 85 85 145 129 131 178 238 171 378 -1 31 -2 32 -46 32
-58 0 -88 -16 -145 -75 -41 -43 -124 -105 -141 -105 -4 0 -19 25 -33 55 -23
46 -87 116 -106 115 -3 0 -16 -18 -29 -39 -12 -21 -35 -45 -50 -54 l-26 -15
-2 43 c-2 46 -29 117 -63 165 l-21 30 -33 -35 c-38 -39 -88 -63 -157 -74 l-47
-8 -7 56 c-8 65 -28 118 -69 185 l-29 49 -19 -36 c-23 -46 -54 -67 -98 -67
l-35 0 0 80 c0 73 -2 82 -27 106 l-26 27 -29 -32 c-41 -46 -88 -51 -157 -17
-124 61 -131 184 -15 260 22 15 42 26 44 24 1 -2 15 -27 29 -56 27 -54 86
-126 116 -142 13 -7 28 2 68 40 53 51 107 85 121 76 5 -3 27 -37 50 -75 23
-38 53 -78 69 -89 56 -40 63 -38 157 43 48 41 94 75 101 75 18 0 32 -28 44
-87 14 -63 44 -113 69 -113 11 0 52 30 91 66 60 55 76 65 102 62 46 -5 73 -46
71 -111 0 -29 -2 -59 -4 -67 -3 -11 6 -16 36 -18 62 -5 157 25 230 74 51 35
65 40 65 26 0 -40 -23 -95 -70 -166 -28 -42 -50 -79 -50 -83 0 -3 35 -3 78 0
144 9 235 82 318 252 42 86 47 92 99 118 77 37 130 89 155 151 18 42 30 57 66
76 81 42 139 123 165 230 9 39 26 69 56 103 23 27 54 72 67 100 27 54 51 160
41 176 -3 5 -31 12 -63 16 -199 20 -319 48 -562 130 -245 82 -391 117 -617
144 l-82 10 -128 132 c-70 72 -131 139 -135 148 -4 13 -14 17 -35 14 -17 -3
-283 61 -653 157 -344 89 -634 159 -645 156 -11 -2 -65 -20 -120 -39 -153 -53
-286 -71 -490 -64 -183 6 -290 24 -430 72 -162 55 -312 150 -376 238 l-32 42
7 -55z m2100 -935 c42 -8 114 -29 159 -48 80 -32 287 -143 287 -153 0 -3 -30
-19 -67 -37 -81 -38 -157 -42 -215 -13 -21 10 -68 50 -105 89 -38 39 -81 84
-98 102 -16 17 -43 41 -60 53 l-30 21 27 1 c14 0 60 -7 102 -15z"/>
</g>
</svg>
