<svg width="32" height="30" viewBox="0 0 32 30" fill="none" xmlns="http://www.w3.org/2000/svg">
<path d="M30.7373 21.0056H9.49549L10.562 18.7687L28.2831 18.7357C28.8824 18.7357 29.3961 18.2949 29.5031 17.6852L31.9572 3.54072C32.0214 3.16975 31.9251 2.78776 31.6897 2.4976C31.5733 2.3548 31.4282 2.23977 31.2643 2.16049C31.1005 2.08121 30.9219 2.03958 30.7408 2.03848L8.19708 1.96135L8.00446 1.02842C7.88318 0.433407 7.36239 0 6.77026 0H1.25917C0.925216 0 0.604942 0.1366 0.368802 0.37975C0.132662 0.6229 0 0.952683 0 1.29655C0 1.64041 0.132662 1.9702 0.368802 2.21335C0.604942 2.4565 0.925216 2.5931 1.25917 2.5931H5.75008L6.59191 6.71414L8.66436 17.0461L5.99621 21.5308C5.85765 21.7234 5.77419 21.952 5.75528 22.1909C5.73637 22.4297 5.78276 22.6693 5.8892 22.8824C6.10322 23.3195 6.53483 23.595 7.01282 23.595H9.25293C8.77536 24.2481 8.51742 25.0436 8.51811 25.8612C8.51811 27.9401 10.159 29.6296 12.1779 29.6296C14.1969 29.6296 15.8377 27.9401 15.8377 25.8612C15.8377 25.0421 15.5737 24.2451 15.1029 23.595H20.8494C20.3718 24.2481 20.1139 25.0436 20.1146 25.8612C20.1146 27.9401 21.7554 29.6296 23.7744 29.6296C25.7933 29.6296 27.4342 27.9401 27.4342 25.8612C27.4342 25.0421 27.1702 24.2451 26.6994 23.595H30.7408C31.4328 23.595 32 23.0147 32 22.2984C31.9979 21.9549 31.864 21.6262 31.6274 21.384C31.3909 21.1418 31.0709 21.0057 30.7373 21.0056V21.0056ZM8.72144 4.51772L29.2605 4.5875L27.2487 16.1867L11.1149 16.216L8.72144 4.51772ZM12.1779 27.0218C11.5572 27.0218 11.0507 26.5003 11.0507 25.8612C11.0507 25.2221 11.5572 24.7005 12.1779 24.7005C12.7986 24.7005 13.3051 25.2221 13.3051 25.8612C13.3051 26.169 13.1863 26.4642 12.9749 26.6819C12.7636 26.8996 12.4769 27.0218 12.1779 27.0218V27.0218ZM23.7744 27.0218C23.1537 27.0218 22.6472 26.5003 22.6472 25.8612C22.6472 25.2221 23.1537 24.7005 23.7744 24.7005C24.3951 24.7005 24.9016 25.2221 24.9016 25.8612C24.9016 26.169 24.7828 26.4642 24.5714 26.6819C24.36 26.8996 24.0733 27.0218 23.7744 27.0218V27.0218Z" fill="white"/>
</svg>
