<svg width="20" height="20" viewBox="0 0 20 20" fill="none" xmlns="http://www.w3.org/2000/svg">
<path d="M18.1608 9.98786L18.3056 9.73756L19.4095 7.82976L18.1608 9.98786ZM18.1608 9.98786L18.3055 10.2382M18.1608 9.98786L18.3055 10.2382M18.3055 10.2382L19.4085 12.1462L19.4087 12.1466C19.4416 12.2034 19.463 12.2662 19.4717 12.3313C19.4803 12.3965 19.4761 12.4626 19.4591 12.5261C19.4422 12.5896 19.4129 12.6491 19.3729 12.7013C19.333 12.7534 19.2831 12.7972 19.2262 12.8301L19.2262 12.8301L17.3162 13.9341L17.0664 14.0785V14.367V16.566C17.0664 16.6986 17.0137 16.8258 16.9199 16.9195C16.8262 17.0133 16.699 17.066 16.5664 17.066H14.3674H14.0787L13.9344 17.3159L12.8319 19.2252C12.8318 19.2253 12.8317 19.2254 12.8317 19.2255C12.7651 19.3401 12.6558 19.4236 12.5278 19.4578C12.3996 19.4921 12.2631 19.4741 12.1482 19.4078L10.2386 18.3041L9.98826 18.1594L9.73798 18.3042L7.8302 19.4081C7.7525 19.453 7.66631 19.4757 7.58087 19.476C7.49282 19.4752 7.40645 19.4517 7.33018 19.4077C7.25379 19.3636 7.19016 19.3004 7.14548 19.2244C7.14531 19.2241 7.14514 19.2238 7.14497 19.2235L6.04228 17.3158L5.8979 17.066H5.60939H3.40939C3.27678 17.066 3.1496 17.0133 3.05584 16.9195C2.96207 16.8258 2.90939 16.6986 2.90939 16.566V14.367V14.0785L2.65961 13.9341L0.751657 12.8313C0.751362 12.8311 0.751067 12.8309 0.750772 12.8308C0.636375 12.7636 0.553054 12.654 0.518913 12.5258C0.484743 12.3975 0.502602 12.2609 0.568592 12.1456C0.568705 12.1454 0.568819 12.1453 0.568933 12.1451L1.67217 10.2384L1.81706 9.98797L1.67217 9.73756L0.568167 7.82956L0.567559 7.82852C0.534565 7.77181 0.513101 7.70914 0.5044 7.64412C0.495698 7.57909 0.499931 7.51298 0.516856 7.4496C0.53378 7.38621 0.563063 7.32679 0.603021 7.27476C0.642978 7.22273 0.692823 7.1791 0.749694 7.14639L0.750605 7.14586L2.6606 6.04186L2.91039 5.89748V5.60897V3.40997C2.91039 3.27736 2.96307 3.15019 3.05684 3.05642C3.15061 2.96265 3.27778 2.90997 3.41039 2.90997H5.60939H5.8979L6.04228 2.66019L7.14628 0.750187L7.14639 0.749987C7.2127 0.635151 7.32191 0.551357 7.45 0.517038C7.578 0.48274 7.71439 0.500664 7.82918 0.566865C7.82925 0.566906 7.82932 0.566947 7.82939 0.566987L9.73901 1.67176L9.98928 1.81655L10.2396 1.67186L12.1496 0.567863L12.1507 0.567202C12.2071 0.534404 12.2695 0.513126 12.3342 0.504604C12.3989 0.496082 12.4646 0.500484 12.5276 0.517554L12.6584 0.0349725M18.3055 10.2382L17.0674 5.89848M17.0674 5.89848V5.60997V3.40997C17.0674 3.27736 17.0147 3.15019 16.9209 3.05642C16.8272 2.96265 16.7 2.90997 16.5674 2.90997H14.3684H14.0798L13.9355 2.66012L12.8332 0.752317C12.8331 0.752168 12.833 0.752018 12.8329 0.751869C12.7657 0.636649 12.656 0.552451 12.5272 0.517468L12.6584 0.0349725M17.0674 5.89848L17.3172 6.04286M17.0674 5.89848L17.3172 6.04286M12.6584 0.0349725C12.5316 0.000588391 12.3992 -0.0082777 12.2689 0.00888808C12.1386 0.0260539 12.013 0.0689102 11.8994 0.134973L13.2654 0.500973C13.1322 0.271889 12.9141 0.104478 12.6584 0.0349725ZM17.3172 6.04286L19.227 7.14676C19.2271 7.14679 19.2271 7.14683 19.2272 7.14686C19.3418 7.21326 19.4255 7.32246 19.4597 7.45048C19.4939 7.57848 19.4759 7.71482 19.4096 7.82956L17.3172 6.04286ZM7.48855 14.9781L7.88851 15.2778L8.18839 14.878L14.1884 6.87797L14.4885 6.47781L14.0882 6.17785L12.4882 4.97885L12.0883 4.67913L11.7884 5.07897L5.78839 13.079L5.48827 13.4791L5.88855 13.7791L7.48855 14.9781ZM8.90293 5.06438C8.52789 4.68909 8.01912 4.47815 7.48856 4.47797C6.95799 4.4778 6.44909 4.68839 6.07379 5.06343C5.6985 5.43848 5.48757 5.94724 5.48739 6.47781C5.48721 7.00837 5.69781 7.51728 6.07285 7.89257C6.44789 8.26786 6.95666 8.4788 7.48722 8.47897C8.01779 8.47915 8.52669 8.26855 8.90199 7.89351C9.27728 7.51847 9.48821 7.0097 9.48839 6.47914C9.48857 5.94857 9.27797 5.43967 8.90293 5.06438ZM11.7227 15.3254C11.9654 15.4261 12.2255 15.4779 12.4882 15.478C13.0188 15.4781 13.5277 15.2676 13.903 14.8925C14.2783 14.5175 14.4892 14.0087 14.4894 13.4781C14.4896 12.9476 14.279 12.4387 13.9039 12.0634C13.5289 11.6881 13.0201 11.4771 12.4896 11.477C12.2268 11.4769 11.9667 11.5285 11.7239 11.629C11.4812 11.7295 11.2606 11.8767 11.0748 12.0624C10.889 12.2481 10.7415 12.4686 10.6409 12.7113C10.5403 12.954 10.4885 13.2141 10.4884 13.4768C10.4883 13.7395 10.54 13.9997 10.6404 14.2424C10.7409 14.4852 10.8881 14.7057 11.0739 14.8916C11.2596 15.0774 11.48 15.2248 11.7227 15.3254Z" stroke="white"/>
</svg>
