<svg width="7" height="9" viewBox="0 0 7 9" fill="none" xmlns="http://www.w3.org/2000/svg">
<path d="M0.538462 2.8125V8.4375C0.538462 8.74687 0.780769 9 1.07692 9H5.92308C6.21923 9 6.46154 8.74687 6.46154 8.4375V2.8125H0.538462ZM2.15385 7.875H1.61538V3.9375H2.15385V7.875ZM3.23077 7.875H2.69231V3.9375H3.23077V7.875ZM4.30769 7.875H3.76923V3.9375H4.30769V7.875ZM5.38462 7.875H4.84615V3.9375H5.38462V7.875ZM6.59615 1.125H4.84615V0.421875C4.84573 0.310124 4.80304 0.203076 4.7274 0.124055C4.65176 0.0450344 4.54928 0.000444345 4.44231 0L2.55769 0C2.45072 0.000444345 2.34824 0.0450344 2.2726 0.124055C2.19696 0.203076 2.15427 0.310124 2.15385 0.421875V1.125H0.403846C0.296827 1.1253 0.194272 1.16984 0.118598 1.24889C0.0429235 1.32794 0.000284249 1.43508 0 1.54688V2.25H7V1.54688C6.99972 1.43508 6.95708 1.32794 6.8814 1.24889C6.80573 1.16984 6.70317 1.1253 6.59615 1.125ZM4.30769 1.125H2.69231V0.569813H4.30769V1.125Z" fill="white"/>
</svg>
