<svg width="25" height="25" viewBox="0 0 25 25" fill="none" xmlns="http://www.w3.org/2000/svg">
<path fill-rule="evenodd" clip-rule="evenodd" d="M24.9243 3.76904C25.2172 3.22364 24.553 3.38905 24.553 3.38905C24.553 3.38905 20.1252 7.63937 19.5098 7.11855C18.8944 6.59772 23.8451 2.52407 23.2593 1.76284C22.7172 1.05327 18.3678 6.11899 17.8453 5.50025C17.3278 4.88276 21.5698 0.449119 21.5698 0.449119C21.5698 0.449119 21.731 -0.218365 21.1898 0.074128C14.5204 3.66071 13.6708 7.00438 13.6708 7.00438C13.6708 7.00438 13.4412 7.65562 13.9395 8.15894C13.9883 8.20269 1.77149 20.3503 0.136108 21.9903C-0.659707 22.7853 2.26022 25.6573 3.05104 24.8623C4.68683 23.2223 16.8107 10.9864 16.8545 11.0318C17.3574 11.5339 18.0069 11.3034 18.0069 11.3034C18.0069 11.3034 21.3452 10.4514 24.9243 3.76904Z" fill="url(#paint0_linear_159_114)"/>
<path fill-rule="evenodd" clip-rule="evenodd" d="M12.5097 16.0445C15.7609 19.3028 21.242 24.7939 21.242 24.7939C21.242 24.7939 23.6345 24.011 23.9715 21.9902L15.2738 13.2754C14.3516 14.1976 13.4303 15.1206 12.5097 16.0445ZM8.23151 13.2204C9.39771 12.0551 10.5625 10.8885 11.726 9.7205L2.2729 0.249471C2.2729 0.249471 2.10207 0.0703083 1.72582 0.448216C0.978759 1.19278 -0.466624 5.93684 5.66115 12.0738C6.63238 13.0471 7.47736 13.1821 8.23151 13.2204Z" fill="url(#paint1_linear_159_114)"/>
<defs>
<linearGradient id="paint0_linear_159_114" x1="12.4994" y1="0" x2="12.4994" y2="25" gradientUnits="userSpaceOnUse">
<stop stop-color="#777777"/>
<stop offset="0.489583" stop-color="white"/>
<stop offset="1" stop-color="#535353"/>
</linearGradient>
<linearGradient id="paint1_linear_159_114" x1="12.4975" y1="0.207031" x2="12.4975" y2="24.7939" gradientUnits="userSpaceOnUse">
<stop stop-color="#777777"/>
<stop offset="0.489583" stop-color="white"/>
<stop offset="1" stop-color="#535353"/>
</linearGradient>
</defs>
</svg>
