<svg width="18" height="20" viewBox="0 0 18 20" fill="none" xmlns="http://www.w3.org/2000/svg">
<path d="M3.27263 6.75C3.27263 6.33581 2.98797 6 2.63666 6C2.28569 6 2 6.33581 2 6.75V9H3.27298V6.75H3.27263ZM15.9997 6.75C15.9997 6.33581 15.7146 6 15.363 6C15.0124 6 14.727 6.33581 14.727 6.75V9H16V6.75H15.9997Z" fill="#525252"/>
<path d="M18 1.98668C17.8245 1.66464 17.6166 1.3613 17.3797 1.08134C17.5863 0.808342 17.7933 0.579342 18 0.437342C17.173 -0.0279908 16.345 0.902009 15.5177 0.437342V0.303009C15.5177 0.136342 15.378 9.15977e-06 15.2067 9.15977e-06C15.1254 -0.000616909 15.0472 0.0308731 14.9891 0.0876229C14.931 0.144373 14.8976 0.221786 14.8963 0.303009V3.33334L12.724 5.45467H13.3443V9.09067H12.103V6.66667H12.7237L9.31033 3.33334V1.98668C10.1383 2.45201 10.966 1.52201 11.7933 1.98668C11.6177 1.66454 11.4096 1.36118 11.1723 1.08134C11.3797 0.808342 11.5863 0.579342 11.7933 0.437342C10.966 -0.0279908 10.1383 0.902009 9.31033 0.437342V0.303009C9.31033 0.136342 9.171 9.15977e-06 9 9.15977e-06C8.91877 -0.000616909 8.84058 0.0308731 8.78246 0.0876229C8.72433 0.144373 8.69098 0.221786 8.68967 0.303009V3.33334L5.27567 6.66667H5.89633V9.09067H4.655V5.45467H5.27533L3.10367 3.33334V1.98668C3.931 2.45201 4.75867 1.52201 5.58633 1.98668C5.41069 1.66462 5.20273 1.36128 4.96567 1.08134C5.17233 0.808342 5.37967 0.579342 5.58633 0.437342C4.75867 -0.0279908 3.931 0.902009 3.10367 0.437342V0.303009C3.10367 0.136342 2.964 9.15977e-06 2.79333 9.15977e-06C2.62267 9.15977e-06 2.48267 0.136342 2.48267 0.303009V3.33334L0.31 5.45467H0.930333V9.09067C0.417667 9.09067 0 9.49867 0 10V11.212C0 11.5383 0.164667 11.9273 0.401 12.158L0.583 12.3357C0.592333 12.3493 0.617333 12.408 0.621 12.4357L0.620333 19.0907C0.620333 19.592 1.038 20 1.55167 20H7.13767V18.7883H7.44767V19.394C7.44767 19.394 7.64867 19.697 7.75833 19.697C7.868 19.697 8.06867 19.394 8.06867 19.394V18.7883H8.68967V19.394C8.68967 19.394 8.89033 19.697 9 19.697C9.10967 19.697 9.31033 19.394 9.31033 19.394V18.7883H9.93133V19.394C9.93133 19.394 10.132 19.697 10.2417 19.697C10.3513 19.697 10.5523 19.394 10.5523 19.394V18.7883H10.8623V20H16.4483C16.962 20 17.3797 19.592 17.3797 19.0907V12.424C17.3827 12.4077 17.4077 12.349 17.4253 12.327L17.599 12.1577C17.8353 11.9273 18 11.5383 18 11.212V10C18 9.49867 17.5823 9.09067 17.069 9.09067V5.45467H17.6897L15.5177 3.33334V1.98668C16.345 2.45201 17.173 1.52234 18 1.98668ZM6.51767 6.66667H11.483V9.32701C11.3862 9.41051 11.3084 9.51378 11.2548 9.62986C11.2012 9.74594 11.1731 9.87215 11.1723 10V10.9093H10.5523V10C10.5523 9.60534 10.292 9.27234 9.93167 9.14667V8.48467C9.93167 7.98267 9.515 7.57567 9.00033 7.57567C8.48633 7.57567 8.069 7.98267 8.069 8.48467V9.14667C7.70867 9.27234 7.44833 9.60534 7.44833 10V10.9093H6.82833V10C6.82833 9.732 6.707 9.49367 6.518 9.32701V6.66667H6.51767ZM1.55167 5.45467H4.034V9.32701C3.84533 9.49367 3.724 9.732 3.724 10V10.9093H3.10333V10C3.10333 9.49867 2.68567 9.09067 2.172 9.09067H1.55167V5.45467ZM7.448 18.182H7.138V17.576H7.448V18.182ZM7.448 16.9697H7.138V16.3637H7.448V16.9697ZM7.448 15.7573H7.138C7.138 15.5443 7.17767 15.3413 7.24633 15.1513H7.44767V15.7573H7.448ZM8.68967 18.182H8.06867V17.576H8.68967V18.182ZM8.68967 16.9697H8.06867V16.3637H8.68967V16.9697ZM8.68967 15.7573H8.06867V15.1513H8.68967V15.7573ZM8.06867 14.5453V14.1853C8.26124 14.0766 8.47145 14.0027 8.68967 13.967V14.5453H8.06867ZM9.93133 18.182H9.31033V17.576H9.93133V18.182ZM9.93133 16.9697H9.31033V16.3637H9.93133V16.9697ZM9.93133 15.7573H9.31033V15.1513H9.93133V15.7573ZM9.31033 14.5453V13.9667C9.52856 14.0024 9.73878 14.0763 9.93133 14.185V14.545H9.31033V14.5453ZM10.552 16.3637H10.862V16.9697H10.552V16.3637ZM10.552 15.7573V15.1513H10.7533C10.822 15.3413 10.8617 15.5447 10.8617 15.7573H10.552ZM10.552 18.182V17.576H10.862V18.182H10.552ZM17.3797 10V11.212C17.3797 11.3787 17.2807 11.6117 17.16 11.7297L16.9783 11.907C16.9687 11.917 16.9597 11.9313 16.9497 11.943C16.8958 11.8988 16.8287 11.874 16.759 11.8727H15.5177C15.347 11.8727 15.2067 12.009 15.2067 12.1753V12.7813C15.2067 12.948 15.347 13.0847 15.5177 13.0847H16.759V15.151H15.6727C15.5914 15.1504 15.5131 15.1819 15.455 15.2387C15.3969 15.2956 15.3636 15.3731 15.3623 15.4543V16.06C15.3623 16.2267 15.5023 16.363 15.6727 16.363H16.759V19.0903C16.759 19.257 16.6197 19.3933 16.4483 19.3933H13.9267C14.008 19.3941 14.0863 19.3627 14.1445 19.3059C14.2027 19.2492 14.2361 19.1716 14.2373 19.0903V18.4843C14.2373 18.3177 14.0977 18.1817 13.9267 18.1817H12.6853C12.515 18.1817 12.3747 18.3177 12.3747 18.4843V19.0903C12.3747 19.257 12.515 19.3933 12.6853 19.3933H11.4827V15.7573C11.4827 14.419 10.3713 13.3333 9 13.3333C7.629 13.3333 6.51767 14.419 6.51767 15.7573V19.3937H5.98767C6.06895 19.3944 6.14723 19.3629 6.20543 19.3062C6.26362 19.2494 6.29702 19.1719 6.29833 19.0907V18.4847C6.29833 18.318 6.158 18.182 5.98767 18.182H4.746C4.66475 18.1811 4.58646 18.2125 4.52829 18.2692C4.47012 18.3259 4.43681 18.4034 4.43567 18.4847V19.0907C4.43567 19.2573 4.575 19.3937 4.746 19.3937H1.55167C1.47038 19.3944 1.3921 19.3629 1.33391 19.3062C1.27571 19.2494 1.24232 19.1719 1.241 19.0907V18.1817H2.32733C2.49833 18.1817 2.63767 18.045 2.63767 17.8783V17.2727C2.63767 17.106 2.49833 16.9697 2.32733 16.9697H1.24133V14.5453H2.32767C2.40892 14.5462 2.48721 14.5149 2.54538 14.4581C2.60355 14.4014 2.63686 14.3239 2.638 14.2427V13.6367C2.638 13.47 2.49867 13.3337 2.32767 13.3337H1.24133V12.4243C1.24133 12.2577 1.14267 12.025 1.022 11.907L0.840333 11.7297C0.719667 11.6117 0.620667 11.3787 0.620667 11.212V10C0.620667 9.83334 0.761 9.697 0.931 9.697H2.17267C2.344 9.697 2.48333 9.83334 2.48333 10V11.212C2.48333 11.3787 2.62333 11.5153 2.794 11.5153H4.035C4.20633 11.5153 4.34533 11.3787 4.34533 11.212V10C4.34533 9.83334 4.48567 9.697 4.65633 9.697H5.89767C6.06867 9.697 6.208 9.83334 6.208 10V11.212C6.208 11.3787 6.34833 11.5153 6.519 11.5153H7.76C7.931 11.5153 8.07033 11.3787 8.07033 11.212V10C8.07033 9.83334 8.21067 9.697 8.381 9.697H9.62267C9.79367 9.697 9.93333 9.83334 9.93333 10V11.212C9.93333 11.3787 10.0733 11.5153 10.2437 11.5153H11.485C11.656 11.5153 11.7957 11.3787 11.7957 11.212V10C11.7957 9.83334 11.9357 9.697 12.106 9.697H13.3473C13.5183 9.697 13.6583 9.83334 13.6583 10V11.212C13.6583 11.3787 13.7983 11.5153 13.9687 11.5153H15.2097C15.381 11.5153 15.5207 11.3787 15.5207 11.212V10C15.5207 9.83334 15.6603 9.697 15.831 9.697H17.0723C17.1532 9.69682 17.2308 9.72855 17.2883 9.78529C17.3459 9.84203 17.3787 9.91919 17.3797 10V10ZM16.4483 5.45467V9.09067H15.828C15.3143 9.09067 14.8967 9.49867 14.8967 10V10.9093H14.276V10C14.276 9.732 14.155 9.49367 13.966 9.32701V5.45467H16.4483" fill="#525252"/>
<path d="M3.48951 15.0102H2.29848C2.22038 15.0095 2.14517 15.0406 2.08926 15.0966C2.03335 15.1527 2.00126 15.2292 2 15.3095V15.907C2 16.0715 2.13468 16.206 2.29848 16.206H3.48951C3.56752 16.2068 3.64266 16.1758 3.69848 16.1197C3.7543 16.0637 3.78625 15.9872 3.78735 15.907V15.3095C3.78735 15.145 3.65363 15.0102 3.48951 15.0102V15.0102ZM5.48161 16.5053H4.29025C4.21224 16.5046 4.13711 16.5356 4.08126 16.5916C4.02541 16.6476 3.99336 16.724 3.99209 16.8042V17.4021C3.99209 17.5665 4.12646 17.7007 4.29025 17.7007H5.48161C5.55959 17.7015 5.63471 17.6706 5.69058 17.6146C5.74644 17.5587 5.7785 17.4823 5.77976 17.4021V16.8042C5.77976 16.6398 5.6454 16.5053 5.48161 16.5053ZM6.10895 14.1137H4.91728C4.83932 14.1129 4.76423 14.1439 4.70842 14.1998C4.65261 14.2558 4.62062 14.3322 4.61944 14.4123V15.0102C4.61944 15.1746 4.75317 15.3095 4.91728 15.3095H6.10895C6.27243 15.3095 6.40711 15.1746 6.40711 15.0102V14.4123C6.40711 14.2482 6.27243 14.1137 6.10895 14.1137ZM5.27686 13.1958C5.44066 13.1958 5.57502 13.061 5.57502 12.8965V12.299C5.57502 12.1345 5.44066 12 5.27686 12H4.08519C4.00717 11.9993 3.93205 12.0303 3.8762 12.0863C3.82035 12.1423 3.78829 12.2188 3.78703 12.299V12.8965C3.78703 13.061 3.92171 13.1958 4.08519 13.1958H5.27686V13.1958ZM14.2127 17.1032V17.7007C14.2127 17.8652 14.347 18 14.5105 18H15.7018C15.866 18 16 17.8652 16 17.7007V17.1032C16 16.9387 15.866 16.8042 15.7018 16.8042H14.5105C14.4325 16.8036 14.3575 16.8347 14.3017 16.8907C14.2459 16.9466 14.2139 17.023 14.2127 17.1032V17.1032ZM14.6589 14.3212V13.7233C14.6577 13.6432 14.6258 13.5667 14.57 13.5107C14.5142 13.4547 14.4391 13.4237 14.3611 13.4244H13.1694C13.0915 13.4238 13.0164 13.4548 12.9606 13.5108C12.9048 13.5668 12.8728 13.6432 12.8716 13.7233V14.3212C12.8716 14.4856 13.0059 14.6202 13.1694 14.6202H14.3611C14.4391 14.6209 14.5142 14.5899 14.5701 14.5339C14.6259 14.4779 14.6578 14.4014 14.6589 14.3212V14.3212ZM13.1697 15.4588H11.9784C11.9004 15.4582 11.8254 15.4892 11.7696 15.5452C11.7138 15.6012 11.6818 15.6776 11.6805 15.7577V16.3556C11.6805 16.5201 11.8149 16.6542 11.9784 16.6542H13.1697C13.2478 16.6551 13.323 16.6242 13.3789 16.5683C13.4348 16.5123 13.467 16.4358 13.4682 16.3556V15.7577C13.4669 15.6775 13.4347 15.6011 13.3788 15.5451C13.3229 15.4891 13.2478 15.4581 13.1697 15.4588V15.4588ZM12.1275 12.9715V12.3736C12.1275 12.2092 11.9934 12.0743 11.8293 12.0743H10.638C10.5599 12.0737 10.4848 12.1048 10.4291 12.1609C10.3733 12.217 10.3413 12.2934 10.3401 12.3736V12.9715C10.3401 13.1356 10.4745 13.2701 10.638 13.2701H11.8296C11.9076 13.2708 11.9826 13.2398 12.0384 13.1839C12.0942 13.128 12.1262 13.0516 12.1275 12.9715" fill="#525252"/>
</svg>
