<svg width="70" height="73" viewBox="0 0 70 73" fill="none" xmlns="http://www.w3.org/2000/svg">
<path d="M2.31273 2.44789C1.00182 2.5674 0 3.70659 0 5.07464V65.4504C0 66.7345 0.878424 67.8228 2.0916 68.0492L28.5713 72.9581C29.3117 73.0967 30.0691 72.8882 30.6433 72.3834C31.22 71.8812 31.5511 71.1425 31.5511 70.3619V2.6386C31.5511 1.89355 31.2566 1.19555 30.7301 0.693339C30.2011 0.189858 29.5059 -0.0555247 28.7924 0.0105889L2.31273 2.44789ZM24.6092 40.1072C23.5195 40.1072 22.6349 38.49 22.6349 36.499C22.6349 34.5041 23.5195 32.892 24.6092 32.892C25.7002 32.892 26.5848 34.5054 26.5848 36.499C26.5848 38.4887 25.7015 40.1072 24.6092 40.1072Z" fill="#806959"/>
<path d="M69.9991 35.0856L49.3018 19.0938V27.3897H33.2227V42.6823H49.3018V50.9758L69.9991 35.0856Z" fill="#CD946D"/>
<path d="M22.6328 36.4976C22.6328 38.4887 23.5173 40.1059 24.6071 40.1059C25.6981 40.1059 26.5827 38.4887 26.5827 36.4976C26.5827 34.5028 25.6981 32.8906 24.6071 32.8906C23.5173 32.8906 22.6328 34.5041 22.6328 36.4976Z" fill="white"/>
<path d="M47.501 25.0372V4.397C47.501 3.85537 47.2921 3.32519 46.9231 2.9425C46.5578 2.5598 46.0483 2.33984 45.5291 2.33984H33.2227V6.45161H43.5524V25.0384H47.501V25.0372Z" fill="#806959"/>
<path d="M33.2227 66.5464V70.6582H45.5279C46.0471 70.6582 46.5566 70.4395 46.9219 70.0555C47.2908 69.6741 47.4998 69.1427 47.4998 68.6023V44.9082H43.5511V66.5477H33.2227V66.5464Z" fill="#806959"/>
</svg>
