<svg width="59" height="61" viewBox="0 0 59 61" fill="none" xmlns="http://www.w3.org/2000/svg">
<path d="M23.418 9.9694V10.7298H35.5846V9.9694C35.5846 8.356 34.9437 6.80868 33.8029 5.66783C32.662 4.52699 31.1147 3.88607 29.5013 3.88607C27.8879 3.88607 26.3406 4.52699 25.1997 5.66783C24.0589 6.80868 23.418 8.356 23.418 9.9694ZM19.6159 10.7298V9.9694C19.6159 7.34763 20.6574 4.83323 22.5113 2.97936C24.3651 1.12548 26.8795 0.0839844 29.5013 0.0839844C32.1231 0.0839844 34.6375 1.12548 36.4913 2.97936C38.3452 4.83323 39.3867 7.34763 39.3867 9.9694V10.7298H56.4961C57.0003 10.7298 57.4838 10.9301 57.8403 11.2866C58.1968 11.6431 58.3971 12.1267 58.3971 12.6309C58.3971 13.135 58.1968 13.6186 57.8403 13.9751C57.4838 14.3316 57.0003 14.5319 56.4961 14.5319H52.0598L49.0182 50.8129C48.7871 53.5681 47.5293 56.1359 45.4941 58.0074C43.459 59.8789 40.795 60.9175 38.0301 60.9173H20.9725C18.2079 60.9171 15.5443 59.8783 13.5094 58.0068C11.4746 56.1354 10.217 53.5678 9.98597 50.8129L6.9443 14.5319H2.50651C2.00232 14.5319 1.51879 14.3316 1.16227 13.9751C0.805756 13.6186 0.605469 13.135 0.605469 12.6309C0.605469 12.1267 0.805756 11.6431 1.16227 11.2866C1.51879 10.9301 2.00232 10.7298 2.50651 10.7298H19.6159ZM25.6992 24.7975C25.6992 24.5479 25.65 24.3007 25.5545 24.07C25.459 23.8394 25.3189 23.6298 25.1424 23.4533C24.9659 23.2768 24.7563 23.1367 24.5257 23.0412C24.295 22.9457 24.0478 22.8965 23.7982 22.8965C23.5485 22.8965 23.3013 22.9457 23.0707 23.0412C22.84 23.1367 22.6305 23.2768 22.4539 23.4533C22.2774 23.6298 22.1374 23.8394 22.0418 24.07C21.9463 24.3007 21.8971 24.5479 21.8971 24.7975V46.8496C21.8971 47.0993 21.9463 47.3465 22.0418 47.5771C22.1374 47.8078 22.2774 48.0173 22.4539 48.1939C22.6305 48.3704 22.84 48.5104 23.0707 48.6059C23.3013 48.7015 23.5485 48.7507 23.7982 48.7507C24.0478 48.7507 24.295 48.7015 24.5257 48.6059C24.7563 48.5104 24.9659 48.3704 25.1424 48.1939C25.3189 48.0173 25.459 47.8078 25.5545 47.5771C25.65 47.3465 25.6992 47.0993 25.6992 46.8496V24.7975ZM35.2044 22.8965C34.1551 22.8965 33.3034 23.7482 33.3034 24.7975V46.8496C33.3034 47.3538 33.5037 47.8373 33.8602 48.1939C34.2167 48.5504 34.7002 48.7507 35.2044 48.7507C35.7086 48.7507 36.1922 48.5504 36.5487 48.1939C36.9052 47.8373 37.1055 47.3538 37.1055 46.8496V24.7975C37.1055 23.7482 36.2538 22.8965 35.2044 22.8965Z" fill="#EF5728"/>
</svg>
