<svg width="32" height="32" viewBox="0 0 32 32" fill="none" xmlns="http://www.w3.org/2000/svg">
<path d="M27.406 28H25.1236V28.5938C25.1236 29.6979 24.7729 30.5781 24.0715 31.2344C23.3701 31.8906 22.5202 32.125 21.5216 31.9375L3.6186 28.8438C2.62002 28.6771 1.77005 28.1458 1.06867 27.25C0.367291 26.3542 0.0166016 25.3542 0.0166016 24.25V4C0.0166016 2.89583 0.462393 1.95312 1.35398 1.17188C2.24556 0.390625 3.3214 0 4.58151 0H27.406C28.6661 0 29.742 0.390625 30.6336 1.17188C31.5252 1.95312 31.9709 2.89583 31.9709 4V24C31.9709 25.1042 31.5252 26.0469 30.6336 26.8281C29.742 27.6094 28.6661 28 27.406 28ZM4.58151 13.0312C4.58151 13.9896 4.93814 14.8646 5.65141 15.6562C5.74651 15.7812 6.0021 15.9792 6.41817 16.25C6.83424 16.5208 7.20276 16.8073 7.52373 17.1094C7.8447 17.4115 8.00519 17.7083 8.00519 18V22C8.00519 22.3125 8.37965 22.599 9.12858 22.8594C9.87751 23.1198 11.0247 23.4167 12.5701 23.75C13.4973 23.9583 14.2998 24.0365 14.9774 23.9844C15.655 23.9323 16.184 23.8125 16.5644 23.625C16.9448 23.4375 17.135 23.2292 17.135 23V19C17.135 18.7083 17.2955 18.4323 17.6165 18.1719C17.9374 17.9115 18.3178 17.6771 18.7577 17.4688C19.1975 17.2604 19.4531 17.125 19.5244 17.0625C19.6433 16.9792 19.8157 16.8854 20.0416 16.7812C20.2674 16.6771 20.4101 16.5677 20.4695 16.4531C20.529 16.3385 20.5587 16.1354 20.5587 15.8438C20.5587 14.9062 20.2139 14.0417 19.5244 13.25C18.835 12.4583 18.0147 11.9792 17.0637 11.8125C16.4693 11.7083 15.9106 11.7604 15.3875 11.9688C14.6742 10.9062 13.7292 10.2708 12.5523 10.0625C11.3754 9.85417 10.4422 10.1562 9.75269 10.9688C9.20585 10.5938 8.64713 10.3542 8.07651 10.25C7.10172 10.0833 6.27552 10.2708 5.59791 10.8125C4.92031 11.3542 4.58151 12.0938 4.58151 13.0312ZM29.6885 5.4375C29.6885 4.47917 29.3021 3.66667 28.5294 3C27.7567 2.33333 26.8354 2 25.7655 2H9.18208L21.5216 4.125C22.5202 4.3125 23.3701 4.85417 24.0715 5.75C24.7729 6.64583 25.1236 7.63542 25.1236 8.71875V26H25.7655C26.8354 26 27.7567 25.6615 28.5294 24.9844C29.3021 24.3073 29.6885 23.5 29.6885 22.5625V5.4375Z" fill="white"/>
</svg>
