<svg width="8" height="8" viewBox="0 0 8 8" fill="none" xmlns="http://www.w3.org/2000/svg">
<path d="M4.23142 1.77675H3.77003C3.72782 1.77675 3.69329 1.81023 3.69329 1.85116V4.41209C3.69329 4.43628 3.7048 4.45861 3.72494 4.47256L5.31057 5.59535C5.3451 5.61954 5.39306 5.61302 5.418 5.57954L5.69234 5.21674C5.71824 5.18233 5.71057 5.13581 5.67604 5.11256L4.30816 4.15349V1.85116C4.30816 1.81023 4.27363 1.77675 4.23142 1.77675ZM6.33983 2.47628L7.84392 2.83256C7.89188 2.84372 7.93888 2.80837 7.93888 2.76093L7.94656 1.25861C7.94656 1.19628 7.8727 1.16093 7.82282 1.2L6.31105 2.34512C6.29963 2.35369 6.29093 2.36521 6.28596 2.37837C6.28099 2.39152 6.27994 2.40576 6.28295 2.41947C6.28595 2.43317 6.29289 2.44577 6.30295 2.45582C6.31301 2.46587 6.3258 2.47296 6.33983 2.47628V2.47628ZM7.94848 5.27721L7.40459 5.09581C7.38562 5.08951 7.36487 5.09065 7.34677 5.099C7.32866 5.10734 7.31464 5.12223 7.3077 5.14047C7.28948 5.18791 7.27029 5.23442 7.25015 5.28093C7.0794 5.67256 6.8348 6.02512 6.52209 6.32744C6.21285 6.62826 5.84636 6.86804 5.44294 7.03349C5.02503 7.20484 4.5758 7.29279 4.12207 7.29209C3.66355 7.29209 3.21942 7.20558 2.80119 7.03349C2.39778 6.86804 2.03129 6.62826 1.72205 6.32744C1.4103 6.02512 1.16569 5.67256 0.993986 5.28093C0.818269 4.87543 0.728242 4.43985 0.729236 4C0.729236 3.55535 0.818445 3.12372 0.995904 2.71814C1.16665 2.32651 1.41126 1.97395 1.72397 1.67163C2.03321 1.37081 2.39969 1.13103 2.80311 0.965582C3.21942 0.793489 3.66451 0.706978 4.12303 0.706978C4.58154 0.706978 5.02567 0.793489 5.4439 0.965582C5.84732 1.13103 6.21381 1.37081 6.52305 1.67163C6.62089 1.76744 6.71298 1.86698 6.79739 1.97209L7.37101 1.53675C6.61609 0.600931 5.44102 -0.000929156 4.12111 1.07678e-06C1.82277 0.000931309 -0.0228087 1.81116 0.000213059 4.04093C0.0232348 6.23163 1.86018 8 4.12303 8C5.90242 8 7.41802 6.90605 7.99548 5.37395C8.00987 5.33488 7.98876 5.29116 7.94848 5.27721V5.27721Z" fill="white"/>
</svg>
